<svg width="30" height="30" viewBox="0 0 30 30" fill="none" xmlns="http://www.w3.org/2000/svg">
<rect width="30" height="30" rx="8" fill="#D1B57A"/>
<path fill-rule="evenodd" clip-rule="evenodd" d="M18.9289 6.64573L18.9856 6.66066C19.9242 6.9073 20.668 7.10275 21.253 7.31002C21.8515 7.52203 22.3395 7.76455 22.7415 8.13383C23.3268 8.67155 23.7365 9.36744 23.9186 10.1335C24.0437 10.6596 24.0139 11.1953 23.9019 11.8096C23.7923 12.4101 23.5931 13.1396 23.3416 14.0602L22.8844 15.7333C22.633 16.6538 22.4336 17.3832 22.2223 17.957C22.0062 18.5439 21.7588 19.0225 21.3823 19.4168C20.8515 19.9726 20.1695 20.3669 19.4177 20.5536C19.1981 21.0473 18.8774 21.4945 18.4728 21.8662C18.0708 22.2355 17.5828 22.4779 16.9843 22.69C16.3993 22.8973 15.6556 23.0927 14.7171 23.3393L14.6603 23.3543C13.7217 23.6009 12.9779 23.7963 12.3656 23.9038C11.7392 24.0136 11.193 24.0428 10.6566 23.9202C9.87547 23.7416 9.16592 23.3398 8.61765 22.7657C8.24112 22.3714 7.99383 21.8928 7.77766 21.306C7.56633 20.7322 7.36703 20.0027 7.11555 19.0822L6.65842 17.409C6.40692 16.4885 6.20763 15.759 6.09814 15.1585C5.98614 14.5443 5.9563 14.0085 6.08137 13.4824C6.2635 12.7164 6.67316 12.0205 7.25855 11.4828C7.66056 11.1135 8.14854 10.871 8.74696 10.659C9.33198 10.4517 10.0758 10.2562 11.0143 10.0096L11.0427 10.0021C11.2685 9.9428 11.4821 9.88676 11.6844 9.83436C12.0187 8.66287 12.3129 7.83474 12.8863 7.23432C13.4346 6.6602 14.1441 6.25842 14.9252 6.0798C15.4617 5.95714 16.0079 5.9864 16.6342 6.09625C17.2465 6.20362 17.9903 6.39909 18.9289 6.64573ZM11.2974 11.2355C10.3644 11.4807 9.69586 11.6582 9.18204 11.8402C8.66176 12.0245 8.35627 12.1952 8.13395 12.3994C7.73342 12.7674 7.45313 13.2435 7.32852 13.7676C7.25935 14.0586 7.26137 14.4034 7.35874 14.9375C7.45752 15.4792 7.6422 16.1573 7.90299 17.1118L8.34492 18.7294C8.6057 19.6839 8.79143 20.3616 8.98209 20.8792C9.17004 21.3895 9.34409 21.6891 9.55231 21.9072C9.92744 22.2999 10.4129 22.5748 10.9474 22.6971C11.244 22.7649 11.5956 22.763 12.1401 22.6674C12.6926 22.5705 13.3839 22.3894 14.3571 22.1336C15.3304 21.8778 16.0215 21.6957 16.5493 21.5088C17.0695 21.3244 17.3751 21.1538 17.5974 20.9495C17.7149 20.8416 17.8219 20.7245 17.9178 20.5995C17.765 20.5784 17.6076 20.5514 17.4449 20.5197C16.8714 20.4078 16.1824 20.2268 15.332 20.0033L15.283 19.9904C14.3444 19.7437 13.6006 19.5483 13.0156 19.3411C12.4172 19.129 11.9292 18.8865 11.5272 18.5173C10.9418 17.9796 10.5322 17.2836 10.35 16.5175C10.225 15.9915 10.2548 15.4558 10.3668 14.8414C10.4763 14.2409 10.6756 13.5115 10.9271 12.591L11.2974 11.2355ZM16.4088 7.33258C15.8642 7.23708 15.5127 7.23511 15.2161 7.30294C14.6816 7.42516 14.1961 7.70005 13.821 8.09287C13.4487 8.48274 13.2195 9.08504 12.8211 10.5157C12.7563 10.7483 12.6879 10.9989 12.6136 11.2707L12.1717 12.8882C11.9109 13.8427 11.7262 14.5208 11.6274 15.0626C11.53 15.5966 11.528 15.9414 11.5972 16.2324C11.7218 16.7565 12.0021 17.2327 12.4026 17.6006C12.6249 17.8048 12.9304 17.9755 13.4507 18.1598C13.9785 18.3468 14.6696 18.529 15.6428 18.7847C16.5183 19.0148 17.1671 19.1849 17.6946 19.2878C18.2199 19.3902 18.5764 19.4154 18.8685 19.38C18.932 19.3724 18.9931 19.3618 19.0527 19.3481C19.5871 19.2259 20.0725 18.951 20.4477 18.5582C20.6559 18.3402 20.83 18.0406 21.0179 17.5303C21.2086 17.0126 21.3943 16.3349 21.6551 15.3804L22.097 13.7628C22.3578 12.8083 22.5425 12.1303 22.6413 11.5885C22.7387 11.0544 22.7406 10.7096 22.6715 10.4187C22.5468 9.89455 22.2666 9.41841 21.8661 9.0505C21.6438 8.84629 21.3382 8.67559 20.8179 8.49125C20.2902 8.30427 19.5991 8.12211 18.6258 7.86635C17.6525 7.61058 16.9613 7.42946 16.4088 7.33258ZM14.3687 13.1638C14.4602 12.8288 14.8113 12.63 15.1529 12.7198L19.2761 13.8033C19.6177 13.893 19.8203 14.2374 19.7288 14.5724C19.6373 14.9074 19.2862 15.1062 18.9447 15.0164L14.8214 13.9329C14.4798 13.8431 14.2771 13.4988 14.3687 13.1638ZM13.7054 15.5901C13.797 15.2551 14.148 15.0562 14.4896 15.1461L16.9636 15.7961C17.3052 15.8859 17.5078 16.2303 17.4163 16.5653C17.3248 16.9003 16.9737 17.0991 16.6322 17.0093L14.1582 16.3591C13.8166 16.2694 13.6139 15.9251 13.7054 15.5901Z" fill="white"/>
</svg>
