<svg width="40" height="40" viewBox="0 0 40 40" fill="none" xmlns="http://www.w3.org/2000/svg">
<rect width="40" height="40" rx="10" fill="#D1B57A"/>
<path d="M22 22.4002H17.6V26.4001C17.6 26.5506 17.5156 26.6886 17.3816 26.7565C17.248 26.8249 17.0868 26.8118 16.9648 26.7237L8.16481 20.3237C8.06122 20.2482 8 20.1282 8 20.0002C8 19.8721 8.06122 19.7521 8.16481 19.6766L16.9648 13.2766C17.0344 13.2258 17.1172 13.2002 17.2 13.2002C17.262 13.2002 17.3244 13.2146 17.3816 13.2438C17.5156 13.3118 17.6 13.4498 17.6 13.6002V17.6002H22C22.2212 17.6002 22.4 17.7789 22.4 18.0001V22.0001C22.4 22.2214 22.2212 22.4002 22 22.4002Z" fill="white"/>
<path d="M24.4002 22.4001C23.7386 22.4001 23.2002 21.8617 23.2002 21.2001V18.8001C23.2002 18.1386 23.7386 17.6001 24.4002 17.6001C25.0618 17.6001 25.6002 18.1386 25.6002 18.8001V21.2001C25.6002 21.8617 25.0618 22.4001 24.4002 22.4001Z" fill="white"/>
<path d="M27.6004 22.4001C26.9388 22.4001 26.4004 21.8617 26.4004 21.2001V18.8001C26.4004 18.1386 26.9388 17.6001 27.6004 17.6001C28.262 17.6001 28.8004 18.1386 28.8004 18.8001V21.2001C28.8004 21.8617 28.262 22.4001 27.6004 22.4001Z" fill="white"/>
<path d="M30.7996 22.4001C30.138 22.4001 29.5996 21.8617 29.5996 21.2001V18.8001C29.5996 18.1386 30.138 17.6001 30.7996 17.6001C31.4612 17.6001 31.9996 18.1386 31.9996 18.8001V21.2001C31.9996 21.8617 31.4612 22.4001 30.7996 22.4001Z" fill="white"/>
</svg>
