<svg width="16" height="16" viewBox="0 0 16 16" fill="none" xmlns="http://www.w3.org/2000/svg">
<path d="M0.5 14.2998C0.5 14.9628 0.943172 15.4998 1.4892 15.4998H1.50341C0.949029 15.4998 0.5 14.9628 0.5 14.2998Z" fill="#FBBC05"/>
<path d="M9.00079 4.99992V8.13287L12.4567 4.72593V1.69997C12.4567 1.03699 12.0135 0.5 11.4675 0.5H3.98031L3.97363 4.99992H9.00079Z" fill="#FBBC05"/>
<path d="M9.00032 11.267H3.96485L3.95898 15.4999H11.4671C12.0139 15.4999 12.4563 14.9629 12.4563 14.2999V11.568L9.00032 8.13403V11.267Z" fill="#34A853"/>
<path d="M3.98017 0.5L0.5 4.99992H3.9743L3.98017 0.5Z" fill="#EA4335"/>
<path d="M0.5 11.2668V14.2998C0.5 14.9628 0.949029 15.4998 1.50341 15.4998H3.9593L3.9651 11.2668H0.5Z" fill="#1967D2"/>
<path d="M3.9743 4.99976H0.5V11.2666H3.9651L3.9743 4.99976Z" fill="#4285F4"/>
<path d="M15.4951 13.2325V2.93275C15.3003 1.56578 14.0736 3.13274 14.0736 3.13274L12.4573 4.72572V11.5665L14.771 13.8655C15.6063 13.9995 15.4951 13.2325 15.4951 13.2325Z" fill="#34A853"/>
<path d="M9.00073 8.13242L12.4575 11.5674V4.72656L9.00073 8.13242Z" fill="#188038"/>
</svg>
